<?xml version="1.0" standalone="no"?>
<!DOCTYPE svg PUBLIC "-//W3C//DTD SVG 20010904//EN"
 "http://www.w3.org/TR/2001/REC-SVG-20010904/DTD/svg10.dtd">
<svg version="1.0" xmlns="http://www.w3.org/2000/svg"
 width="260.000000pt" height="260.000000pt" viewBox="0 0 260.000000 260.000000"
 preserveAspectRatio="xMidYMid meet">
<metadata>
Created by potrace 1.11, written by Peter Selinger 2001-2013
</metadata>
<g transform="translate(0.000000,260.000000) scale(0.100000,-0.100000)"
fill="#000000" stroke="none">
<path d="M30 1295 l0 -1275 1275 0 1275 0 0 1275 0 1275 -1275 0 -1275 0 0
-1275z m2450 1113 c3 -509 0 -2282 -4 -2285 -3 -4 -2045 -7 -2303 -4 l-43 1 0
1175 0 1175 1175 0 1175 0 0 -62z"/>
<path d="M739 2170 c-61 -29 -90 -52 -119 -94 -102 -149 -56 -363 99 -454 39
-23 57 -27 121 -27 88 0 154 28 201 85 33 40 35 48 13 57 -11 4 -24 -5 -41
-26 -33 -41 -93 -71 -157 -78 -189 -18 -316 233 -207 411 13 20 44 51 69 69
42 28 54 32 117 32 83 0 133 -21 166 -70 19 -27 27 -32 41 -24 18 10 18 11 1
40 -21 35 -77 76 -124 89 -49 15 -141 10 -180 -10z"/>
<path d="M1272 1367 c-320 -320 -582 -587 -582 -594 0 -6 4 -14 10 -18 5 -3
273 258 595 580 483 483 584 589 574 601 -6 8 -12 14 -13 14 0 0 -263 -262
-584 -583z"/>
<path d="M1530 842 c0 -280 1 -300 18 -298 16 3 17 24 20 257 l3 254 29 -47
c17 -27 30 -50 30 -53 0 -2 15 -28 33 -57 19 -29 45 -73 59 -98 14 -25 38 -66
53 -92 15 -28 34 -48 43 -48 15 1 111 155 219 352 11 21 23 36 25 31 2 -4 4
-117 3 -250 l-1 -243 23 0 23 0 0 295 0 295 -23 0 c-22 0 -60 -58 -212 -325
-63 -110 -45 -121 -181 112 -92 160 -125 209 -142 211 l-22 3 0 -299z"/>
</g>
</svg>
